<?xml version="1.0" encoding="utf-8"?>
<!-- Generator: Adobe Illustrator 22.0.0, SVG Export Plug-In . SVG Version: 6.00 Build 0)  -->
<svg version="1.1" id="Capa_1" xmlns="http://www.w3.org/2000/svg" xmlns:xlink="http://www.w3.org/1999/xlink" x="0px" y="0px"
	 viewBox="0 0 512 512" style="enable-background:new 0 0 512 512;" xml:space="preserve">
<style type="text/css">
	.st0{fill:#323232;}
</style>
<g>
	<polygon class="st0" points="450,175 512,237 512,175 	"/>
	<path class="st0" d="M354.6,175h-80.9l102.6,102.6h-95.4L178.2,175H92.3l102.6,102.6H99.5L10.8,189c-1.1,2.6-1.6,5.4-1.6,8.4V476
		c0,15.5,12.6,28.1,28.1,28.1h446.6c15.5,0,28.1-12.6,28.1-28.1V277.6h-54.8L354.6,175z"/>
	<polygon class="st0" points="427.4,7.8 342.4,20.2 255.5,136.4 340.6,124.1 	"/>
	<polygon class="st0" points="247.9,33.8 167.9,45.4 81,161.7 161.1,150.1 	"/>
	<path class="st0" d="M506.1,77.5l-7.6-52.1L435,110.4l52.1-7.6C499.4,101.1,507.9,89.7,506.1,77.5z"/>
	<path class="st0" d="M73.4,59.1L19.2,67C6.9,68.7-1.5,80.1,0.2,92.3l6.9,47.6l1,6.6l22.4-30L73.4,59.1z"/>
</g>
</svg>
