<?xml version="1.0" encoding="utf-8"?>
<!-- Generator: Adobe Illustrator 22.0.0, SVG Export Plug-In . SVG Version: 6.00 Build 0)  -->
<svg version="1.1" id="Layer_1" xmlns="http://www.w3.org/2000/svg" xmlns:xlink="http://www.w3.org/1999/xlink" x="0px" y="0px"
	 viewBox="0 0 500 500" style="enable-background:new 0 0 500 500;" xml:space="preserve">
<style type="text/css">
	.st0{fill:none;stroke:#95989A;stroke-width:2;stroke-linecap:round;stroke-linejoin:round;stroke-miterlimit:10;}
</style>
<path class="st0" d="M470,277.1v-55l-65.5-10.7c-3.9-15.5-10-30.1-18-43.4l38.1-54.4l-38.9-38.9l-53.7,38.6
	c-13.4-8.1-28.1-14.3-43.7-18.2L277.1,30h-55l-10.6,64.9c-15.6,3.8-30.4,9.9-43.8,18l-53.5-38.2l-38.9,38.9l37.7,53.8
	c-8.1,13.5-14.3,28.2-18.3,43.9L30,222.1v55l64.6,11.5c3.9,15.7,10.1,30.4,18.3,43.9l-38.2,53.4l38.9,38.9l53.9-37.8
	c13.5,8.1,28.2,14.2,43.8,18.1l10.8,65h55l11.6-65.1c15.5-3.9,30.2-10.1,43.5-18.2l54.3,38.1l38.9-38.9L386.6,332
	c8-13.4,14.1-27.9,17.9-43.4L470,277.1z"/>
<circle class="st0" cx="250" cy="250" r="70"/>
</svg>
