<svg xmlns="http://www.w3.org/2000/svg" viewBox="0 0 1954.66103 463.22212"><title>Background</title><line x1="17.33052" y1="185.86006" x2="209.33052" y2="0.86006" style="fill:none;stroke:#494949;stroke-miterlimit:10"/><line x1="106.33052" y1="99.86006" x2="210.33052" y2="205.86006" style="fill:none;stroke:#494949;stroke-miterlimit:10"/><line x1="168.33052" y1="162.86006" x2="0.33052" y2="310.86006" style="fill:none;stroke:#494949;stroke-miterlimit:10"/><line x1="61.33052" y1="143.86006" x2="6.33052" y2="23.86006" style="fill:none;stroke:#494949;stroke-miterlimit:10"/><line x1="212.33052" y1="192.86006" x2="353.33052" y2="13.86006" style="fill:none;stroke:#494949;stroke-miterlimit:10"/><line x1="210.33052" y1="205.86006" x2="200.33052" y2="279.86006" style="fill:none;stroke:#494949;stroke-miterlimit:10"/><line x1="117.33052" y1="207.86006" x2="134.33052" y2="315.86006" style="fill:none;stroke:#494949;stroke-miterlimit:10"/><line x1="200.33052" y1="279.86006" x2="16.33052" y2="378.86006" style="fill:none;stroke:#494949;stroke-miterlimit:10"/><line x1="89.33052" y1="17.86006" x2="92.33052" y2="112.86006" style="fill:none;stroke:#494949;stroke-miterlimit:10"/><line x1="155.33052" y1="52.86006" x2="223.33052" y2="100.86006" style="fill:none;stroke:#494949;stroke-miterlimit:10"/><line x1="148.33052" y1="142.86006" x2="73.33052" y2="246.86006" style="fill:none;stroke:#494949;stroke-miterlimit:10"/><line x1="45.33052" y1="270.86006" x2="127.33052" y2="268.86006" style="fill:none;stroke:#494949;stroke-miterlimit:10"/><line x1="80.33052" y1="269.86006" x2="76.33052" y2="346.86006" style="fill:none;stroke:#494949;stroke-miterlimit:10"/><line x1="146.33052" y1="182.86006" x2="200.33052" y2="279.86006" style="fill:none;stroke:#494949;stroke-miterlimit:10"/><line x1="167.33052" y1="60.86006" x2="168.33052" y2="162.86006" style="fill:none;stroke:#494949;stroke-miterlimit:10"/><line x1="57.33052" y1="356.86006" x2="13.33052" y2="428.86006" style="fill:none;stroke:#494949;stroke-miterlimit:10"/><line x1="45.33052" y1="376.86006" x2="96.33052" y2="371.86006" style="fill:none;stroke:#494949;stroke-miterlimit:10"/><line x1="114.33052" y1="325.86006" x2="78.33052" y2="373.86006" style="fill:none;stroke:#494949;stroke-miterlimit:10"/><line x1="96.33052" y1="371.86006" x2="92.33052" y2="385.86006" style="fill:none;stroke:#494949;stroke-miterlimit:10"/><line x1="64.33052" y1="374.86006" x2="92.33052" y2="385.86006" style="fill:none;stroke:#494949;stroke-miterlimit:10"/><line x1="209.33052" y1="213.86006" x2="248.33052" y2="249.86006" style="fill:none;stroke:#494949;stroke-miterlimit:10"/><line x1="200.33052" y1="279.86006" x2="220.33052" y2="298.86006" style="fill:none;stroke:#494949;stroke-miterlimit:10"/><line x1="248.33052" y1="249.86006" x2="220.33052" y2="298.86006" style="fill:none;stroke:#494949;stroke-miterlimit:10"/><line x1="168.33052" y1="112.86006" x2="223.33052" y2="100.86006" style="fill:none;stroke:#494949;stroke-miterlimit:10"/><line x1="236.33052" y1="237.86006" x2="212.33052" y2="192.86006" style="fill:none;stroke:#494949;stroke-miterlimit:10"/><line x1="117.33052" y1="185.86006" x2="53.33052" y2="151.86006" style="fill:none;stroke:#494949;stroke-miterlimit:10"/><line x1="17.33052" y1="216.86006" x2="36.33052" y2="230.86006" style="fill:none;stroke:#494949;stroke-miterlimit:10"/><line x1="16.33052" y1="295.86006" x2="36.33052" y2="230.86006" style="fill:none;stroke:#494949;stroke-miterlimit:10"/><line x1="41.33052" y1="162.86006" x2="36.33052" y2="230.86006" style="fill:none;stroke:#494949;stroke-miterlimit:10"/><line x1="38.33052" y1="210.86006" x2="81.33052" y2="167.86006" style="fill:none;stroke:#494949;stroke-miterlimit:10"/><line x1="56.33052" y1="192.86006" x2="67.33052" y2="251.86006" style="fill:none;stroke:#494949;stroke-miterlimit:10"/><line x1="200.33052" y1="105.86006" x2="230.33052" y2="169.86006" style="fill:none;stroke:#494949;stroke-miterlimit:10"/><line x1="212.33052" y1="192.86006" x2="194.33052" y2="189.86006" style="fill:none;stroke:#494949;stroke-miterlimit:10"/><line x1="207.33052" y1="89.86006" x2="217.33052" y2="20.86006" style="fill:none;stroke:#494949;stroke-miterlimit:10"/><line x1="212.33052" y1="53.86006" x2="268.33052" y2="20.86006" style="fill:none;stroke:#494949;stroke-miterlimit:10"/><line x1="260.33052" y1="25.86006" x2="262.33052" y2="60.86006" style="fill:none;stroke:#494949;stroke-miterlimit:10"/><line x1="262.33052" y1="60.86006" x2="223.33052" y2="100.86006" style="fill:none;stroke:#494949;stroke-miterlimit:10"/><line x1="244.33052" y1="80.86006" x2="280.33052" y2="106.86006" style="fill:none;stroke:#494949;stroke-miterlimit:10"/><line x1="1937.33052" y1="185.36006" x2="1745.33052" y2="0.36006" style="fill:none;stroke:#494949;stroke-miterlimit:10"/><line x1="1848.33052" y1="99.36006" x2="1744.33052" y2="205.36006" style="fill:none;stroke:#494949;stroke-miterlimit:10"/><line x1="1786.33052" y1="162.36006" x2="1954.33052" y2="310.36006" style="fill:none;stroke:#494949;stroke-miterlimit:10"/><line x1="1893.33052" y1="143.36006" x2="1948.33052" y2="23.36006" style="fill:none;stroke:#494949;stroke-miterlimit:10"/><line x1="1858.33052" y1="370.86006" x2="1798.33052" y2="303.36006" style="fill:none;stroke:#494949;stroke-miterlimit:10"/><line x1="1744.33052" y1="205.36006" x2="1754.33052" y2="279.36006" style="fill:none;stroke:#494949;stroke-miterlimit:10"/><line x1="1837.33052" y1="207.36006" x2="1820.33052" y2="315.36006" style="fill:none;stroke:#494949;stroke-miterlimit:10"/><line x1="1754.33052" y1="279.36006" x2="1938.33052" y2="378.36006" style="fill:none;stroke:#494949;stroke-miterlimit:10"/><line x1="1865.33052" y1="17.36006" x2="1862.33052" y2="112.36006" style="fill:none;stroke:#494949;stroke-miterlimit:10"/><line x1="1799.33052" y1="52.36006" x2="1731.33052" y2="100.36006" style="fill:none;stroke:#494949;stroke-miterlimit:10"/><line x1="1806.33052" y1="142.36006" x2="1881.33052" y2="246.36006" style="fill:none;stroke:#494949;stroke-miterlimit:10"/><line x1="1909.33052" y1="270.36006" x2="1827.33052" y2="268.36006" style="fill:none;stroke:#494949;stroke-miterlimit:10"/><line x1="1874.33052" y1="269.36006" x2="1878.33052" y2="346.36006" style="fill:none;stroke:#494949;stroke-miterlimit:10"/><line x1="1808.33052" y1="182.36006" x2="1754.33052" y2="279.36006" style="fill:none;stroke:#494949;stroke-miterlimit:10"/><line x1="1787.33052" y1="60.36006" x2="1786.33052" y2="162.36006" style="fill:none;stroke:#494949;stroke-miterlimit:10"/><line x1="1897.33052" y1="356.36006" x2="1947.33052" y2="432.86006" style="fill:none;stroke:#494949;stroke-miterlimit:10"/><line x1="1909.33052" y1="376.36006" x2="1858.33052" y2="371.36006" style="fill:none;stroke:#494949;stroke-miterlimit:10"/><line x1="1840.33052" y1="325.36006" x2="1876.33052" y2="373.36006" style="fill:none;stroke:#494949;stroke-miterlimit:10"/><line x1="1858.33052" y1="371.36006" x2="1862.33052" y2="385.36006" style="fill:none;stroke:#494949;stroke-miterlimit:10"/><line x1="1890.33052" y1="374.36006" x2="1862.33052" y2="385.36006" style="fill:none;stroke:#494949;stroke-miterlimit:10"/><line x1="1745.33052" y1="213.36006" x2="1706.33052" y2="249.36006" style="fill:none;stroke:#494949;stroke-miterlimit:10"/><line x1="1754.33052" y1="279.36006" x2="1734.33052" y2="298.36006" style="fill:none;stroke:#494949;stroke-miterlimit:10"/><line x1="1706.33052" y1="249.36006" x2="1734.33052" y2="298.36006" style="fill:none;stroke:#494949;stroke-miterlimit:10"/><line x1="1786.33052" y1="112.36006" x2="1731.33052" y2="100.36006" style="fill:none;stroke:#494949;stroke-miterlimit:10"/><line x1="1718.33052" y1="237.36006" x2="1742.33052" y2="192.36006" style="fill:none;stroke:#494949;stroke-miterlimit:10"/><line x1="1837.33052" y1="185.36006" x2="1901.33052" y2="151.36006" style="fill:none;stroke:#494949;stroke-miterlimit:10"/><line x1="1937.33052" y1="216.36006" x2="1918.33052" y2="230.36006" style="fill:none;stroke:#494949;stroke-miterlimit:10"/><line x1="1938.33052" y1="295.36006" x2="1918.33052" y2="230.36006" style="fill:none;stroke:#494949;stroke-miterlimit:10"/><line x1="1913.33052" y1="162.36006" x2="1918.33052" y2="230.36006" style="fill:none;stroke:#494949;stroke-miterlimit:10"/><line x1="1916.33052" y1="210.36006" x2="1873.33052" y2="167.36006" style="fill:none;stroke:#494949;stroke-miterlimit:10"/><line x1="1898.33052" y1="192.36006" x2="1887.33052" y2="251.36006" style="fill:none;stroke:#494949;stroke-miterlimit:10"/><line x1="1742.33052" y1="192.36006" x2="1760.33052" y2="189.36006" style="fill:none;stroke:#494949;stroke-miterlimit:10"/><line x1="1747.33052" y1="89.36006" x2="1737.33052" y2="20.36006" style="fill:none;stroke:#494949;stroke-miterlimit:10"/><line x1="1742.33052" y1="53.36006" x2="1686.33052" y2="20.36006" style="fill:none;stroke:#494949;stroke-miterlimit:10"/><line x1="1694.33052" y1="25.36006" x2="1692.33052" y2="60.36006" style="fill:none;stroke:#494949;stroke-miterlimit:10"/><line x1="1692.33052" y1="60.36006" x2="1731.33052" y2="100.36006" style="fill:none;stroke:#494949;stroke-miterlimit:10"/><line x1="1862.33052" y1="384.86006" x2="1897.33052" y2="441.86006" style="fill:none;stroke:#494949;stroke-miterlimit:10"/><line x1="1928.33052" y1="408.86006" x2="1890.33052" y2="430.86006" style="fill:none;stroke:#494949;stroke-miterlimit:10"/><line x1="1904.33052" y1="422.86006" x2="1946.33052" y2="462.86006" style="fill:none;stroke:#494949;stroke-miterlimit:10"/><line x1="1897.33052" y1="441.86006" x2="1922.33052" y2="439.86006" style="fill:none;stroke:#494949;stroke-miterlimit:10"/></svg>