<?xml version="1.0" encoding="utf-8"?>
<!-- Generator: Adobe Illustrator 22.0.1, SVG Export Plug-In . SVG Version: 6.00 Build 0)  -->
<svg version="1.1" id="Ebene_1" xmlns="http://www.w3.org/2000/svg" xmlns:xlink="http://www.w3.org/1999/xlink" x="0px" y="0px"
	 viewBox="0 0 500 500" style="enable-background:new 0 0 500 500;" xml:space="preserve">
<style type="text/css">
	.st0{fill:#323232;}
	.st1{fill:none;stroke:#95989A;stroke-width:7.288;stroke-linecap:round;stroke-linejoin:round;stroke-miterlimit:10;}
</style>
<g>
	<path class="st0" d="M493,7v486H7V7H493 M493-0.3H7C3-0.3-0.3,3-0.3,7v486c0,4,3.3,7.3,7.3,7.3h486c4,0,7.3-3.3,7.3-7.3V7
		C500.3,3,497-0.3,493-0.3L493-0.3z"/>
</g>
<path class="st1" d="M140.6,104.4"/>
<path class="st1" d="M122.7,115.2"/>
<path class="st1" d="M405.7,272.5"/>
<path class="st1" d="M405,274.3"/>
<path class="st1" d="M121.7,431.5"/>
<polygon class="st0" points="350,121.4 337.5,141.2 253.4,252.9 329.2,350.3 350,378 140.2,259.2 "/>
</svg>
